<?xml version="1.0" encoding="UTF-8"?>
<!DOCTYPE svg PUBLIC "-//W3C//DTD SVG 1.1//EN" "http://www.w3.org/Graphics/SVG/1.1/DTD/svg11.dtd">
<svg xmlns="http://www.w3.org/2000/svg" version="1.1" width="44px" height="44px" style="shape-rendering:geometricPrecision; text-rendering:geometricPrecision; image-rendering:optimizeQuality; fill-rule:evenodd; clip-rule:evenodd" xmlns:xlink="http://www.w3.org/1999/xlink">
<g><path style="opacity:0.998" fill="#8ca937" d="M 6.5,-0.5 C 16.5,-0.5 26.5,-0.5 36.5,-0.5C 39.1667,1.5 41.5,3.83333 43.5,6.5C 43.5,16.5 43.5,26.5 43.5,36.5C 41.5,39.1667 39.1667,41.5 36.5,43.5C 26.5,43.5 16.5,43.5 6.5,43.5C 3.83333,41.5 1.5,39.1667 -0.5,36.5C -0.5,26.5 -0.5,16.5 -0.5,6.5C 1.5,3.83333 3.83333,1.5 6.5,-0.5 Z"/></g>
<g><path  fill="#8da547" d="M 32.5,9.5 C 34.4651,16.7605 35.1318,24.4271 34.5,32.5C 33.5,32.5 32.5,32.5 31.5,32.5C 31.5,32.1667 31.5,31.8333 31.5,31.5C 32.4916,24.3524 32.825,17.0191 32.5,9.5 Z"/></g>
<g><path  fill="#98ae5b" d="M 18.5,19.5 C 19.6834,15.8414 19.6834,12.1747 18.5,8.5C 16.3995,15.6109 15.0662,22.9442 14.5,30.5C 13.8822,23.2377 12.5489,16.2377 10.5,9.5C 11.609,9.44312 12.609,9.10978 13.5,8.5C 15.6074,7.53178 17.9407,7.19845 20.5,7.5C 21.0894,11.9707 20.4228,15.9707 18.5,19.5 Z"/></g>
<g><path  fill="#f4fdc6" d="M 32.5,9.5 C 32.825,17.0191 32.4916,24.3524 31.5,31.5C 31.6716,30.5084 31.3382,29.8417 30.5,29.5C 30.5,23.1667 30.5,16.8333 30.5,10.5C 29.209,10.2627 28.209,10.596 27.5,11.5C 26.8333,11.5 26.5,11.8333 26.5,12.5C 25.6981,13.9516 25.1981,15.6183 25,17.5C 24.5045,15.5273 24.3379,13.5273 24.5,11.5C 24.8333,10.8333 25.1667,10.1667 25.5,9.5C 27.8333,8.16667 30.1667,8.16667 32.5,9.5 Z"/></g>
<g><path  fill="#8da844" d="M 27.5,11.5 C 28.7943,13.0478 29.4609,15.0478 29.5,17.5C 29.4954,19.6965 29.162,21.6965 28.5,23.5C 27.8826,23.3893 27.3826,23.056 27,22.5C 26.5017,19.1832 26.335,15.8499 26.5,12.5C 26.5,11.8333 26.8333,11.5 27.5,11.5 Z"/></g>
<g><path  fill="#e0edb5" d="M 24.5,11.5 C 24.3379,13.5273 24.5045,15.5273 25,17.5C 25.1981,15.6183 25.6981,13.9516 26.5,12.5C 26.335,15.8499 26.5017,19.1832 27,22.5C 27.3826,23.056 27.8826,23.3893 28.5,23.5C 28.1924,25.924 28.5258,28.2573 29.5,30.5C 30.1067,30.3764 30.44,30.0431 30.5,29.5C 31.3382,29.8417 31.6716,30.5084 31.5,31.5C 31.5,31.8333 31.5,32.1667 31.5,32.5C 29.8561,32.7135 28.3561,32.3802 27,31.5C 27.0926,28.0439 26.0926,25.0439 24,22.5C 23.1901,18.6425 23.3567,14.9758 24.5,11.5 Z"/></g>
<g><path  fill="#8da646" d="M 25.5,9.5 C 25.1667,10.1667 24.8333,10.8333 24.5,11.5C 23.3567,14.9758 23.1901,18.6425 24,22.5C 26.0926,25.0439 27.0926,28.0439 27,31.5C 28.3561,32.3802 29.8561,32.7135 31.5,32.5C 29.7654,35.0675 27.7654,35.0675 25.5,32.5C 22.9443,25.1237 21.9443,17.457 22.5,9.5C 23.5,9.5 24.5,9.5 25.5,9.5 Z"/></g>
<g><path  fill="#ecf6c9" d="M 10.5,9.5 C 12.5489,16.2377 13.8822,23.2377 14.5,30.5C 15.0662,22.9442 16.3995,15.6109 18.5,8.5C 19.6834,12.1747 19.6834,15.8414 18.5,19.5C 17.6773,22.977 17.1773,26.6437 17,30.5C 15.6043,32.5268 13.9376,32.8602 12,31.5C 11.8238,27.3123 11.3238,23.3123 10.5,19.5C 9.00268,17.7103 8.33601,15.5437 8.5,13C 8.83333,11.5 9.16667,10 9.5,8.5C 10.1067,8.62358 10.44,8.95691 10.5,9.5 Z"/></g>
<g><path  fill="#e3efbb" d="M 13.5,8.5 C 14.7479,9.3339 15.4146,10.6672 15.5,12.5C 15.1667,13.8333 14.8333,15.1667 14.5,16.5C 13.52,13.9135 13.1866,11.2469 13.5,8.5 Z"/></g>
<g><path  fill="#93a363" d="M 27.5,11.5 C 28.209,10.596 29.209,10.2627 30.5,10.5C 30.5,16.8333 30.5,23.1667 30.5,29.5C 30.44,30.0431 30.1067,30.3764 29.5,30.5C 28.5258,28.2573 28.1924,25.924 28.5,23.5C 29.162,21.6965 29.4954,19.6965 29.5,17.5C 29.4609,15.0478 28.7943,13.0478 27.5,11.5 Z"/></g>
<g><path  fill="#91ab48" d="M 10.5,19.5 C 11.3238,23.3123 11.8238,27.3123 12,31.5C 13.9376,32.8602 15.6043,32.5268 17,30.5C 17.1773,26.6437 17.6773,22.977 18.5,19.5C 17.9433,23.6446 18.9433,27.3113 21.5,30.5C 18.492,34.4607 14.992,35.1274 11,32.5C 10.501,28.1794 10.3343,23.8461 10.5,19.5 Z"/></g>
</svg>
